/* XPM */
static char *a5280a7e937a4801cb98887a65a36927WFqDJ7E9XUjXUyvg[] = {
/* columns rows colors chars-per-pixel */
"50 50 226 2 ",
"   c #0F1D0E",
".  c #151E1B",
"X  c #201710",
"o  c #192712",
"O  c #25281B",
"+  c #25321E",
"@  c #1E2623",
"#  c #232926",
"$  c #29372B",
"%  c #35312A",
"&  c #313331",
"*  c #4E2219",
"=  c #4A1B25",
"-  c #503031",
";  c #4F3133",
":  c #6B3C39",
">  c #31432D",
",  c #594536",
"<  c #514C2A",
"1  c #634826",
"2  c #66582D",
"3  c #6D4332",
"4  c #7A5B29",
"5  c #786634",
"6  c #7E652C",
"7  c #573045",
"8  c #613840",
"9  c #4A514A",
"0  c #785949",
"q  c #74534F",
"w  c #67695E",
"e  c #7B6E59",
"r  c #7A5864",
"t  c #747265",
"y  c #81512D",
"u  c #9C5B3B",
"i  c #82433C",
"p  c #986A33",
"a  c #9E7736",
"s  c #A96A2A",
"d  c #A97838",
"f  c #AE6B3D",
"g  c #C2753D",
"h  c #8C5E4B",
"j  c #995B49",
"k  c #885658",
"l  c #864F48",
"z  c #876749",
"x  c #986945",
"c  c #84685C",
"v  c #9F6B5A",
"b  c #8D7458",
"n  c #9A774C",
"m  c #A76846",
"M  c #A86457",
"N  c #B46F55",
"B  c #925E69",
"V  c #855A63",
"C  c #886867",
"Z  c #956568",
"A  c #847865",
"S  c #897166",
"D  c #947666",
"F  c #986A77",
"G  c #97767A",
"H  c #8A7378",
"J  c #B87969",
"K  c #A57679",
"L  c #AE7170",
"P  c #C47746",
"I  c #C97C56",
"U  c #C37D6A",
"Y  c #C88835",
"T  c #BF8F43",
"R  c #BE8D55",
"E  c #9B957B",
"W  c #848D7C",
"Q  c #B98174",
"!  c #B7947C",
"~  c #A5917B",
"^  c #C88647",
"/  c #D58B47",
"(  c #D99349",
")  c #C98355",
"_  c #CE8359",
"`  c #D28759",
"'  c #D99956",
"]  c #E49E5B",
"[  c #E09756",
"{  c #D0A45D",
"}  c #E4A556",
"|  c #C78765",
" . c #D68B68",
".. c #DA9869",
"X. c #C5897C",
"o. c #D48976",
"O. c #CE9479",
"+. c #DD9E7F",
"@. c #D59877",
"#. c #E59969",
"$. c #E29C73",
"%. c #E29B7C",
"&. c #E89A78",
"*. c #D9A365",
"=. c #CDAA7B",
"-. c #D7AA76",
";. c #C8A062",
":. c #E7A66C",
">. c #F8AC69",
",. c #EEB161",
"<. c #F3B66A",
"1. c #E9A37B",
"2. c #E6A678",
"3. c #F6AE77",
"4. c #ECB478",
"5. c #F2B573",
"6. c #9B7684",
"7. c #AE7B87",
"8. c #B27E8C",
"9. c #9C8888",
"0. c #918C8D",
"q. c #B98783",
"w. c #AC968C",
"e. c #AC8C91",
"r. c #A78E92",
"t. c #B89695",
"y. c #B18F8C",
"u. c #BDA795",
"i. c #B3A694",
"p. c #B796A2",
"a. c #A79BA5",
"s. c #BDA8AA",
"d. c #A9B2A3",
"f. c #ACAEA4",
"g. c #C48987",
"h. c #D39B8A",
"j. c #D99788",
"k. c #C39399",
"l. c #C89896",
"z. c #CC948D",
"x. c #E69D83",
"c. c #DBBE89",
"v. c #DAB48F",
"b. c #D7AA99",
"n. c #D8B69A",
"m. c #D5A987",
"M. c #E2A482",
"N. c #ECA98B",
"B. c #F4A986",
"V. c #EAB687",
"C. c #F5B689",
"Z. c #E3A696",
"A. c #E5B793",
"S. c #F2B294",
"D. c #FCB994",
"F. c #F7B797",
"G. c #D09EA1",
"H. c #C99BAE",
"J. c #C6A4AD",
"K. c #D3A2A6",
"L. c #D5B6AA",
"P. c #D6AEBE",
"I. c #D4B6B9",
"U. c #C9B3B1",
"Y. c #E1A8A5",
"T. c #EFB1A4",
"R. c #DDC394",
"E. c #FBC586",
"W. c #EDCB93",
"Q. c #FCC596",
"!. c #F7D29E",
"~. c #D8C6A7",
"^. c #D1C8B6",
"/. c #DED2B8",
"(. c #E6C7A8",
"). c #FBCAA8",
"_. c #FDD6AA",
"`. c #F9D1B7",
"'. c #E5C9AC",
"]. c #FDE6BE",
"[. c #D1B3C7",
"{. c #E0B5D1",
"}. c #DAC6C9",
"|. c #C5D0C0",
" X c #D6D5D4",
".X c #D2D3C8",
"XX c #E6CAC7",
"oX c #F9D8CA",
"OX c #E9C9D4",
"+X c #EAD7D6",
"@X c #F6D8D6",
"#X c #EED5CE",
"$X c #DFE7DC",
"%X c #EFE0C3",
"&X c #FAE6CD",
"*X c #E8E5D9",
"=X c #F7EBD9",
"-X c #FDF5DC",
";X c #E4DDE4",
":X c #EBECE5",
">X c #E6ECEA",
",X c #EDEDED",
"<X c #E5E6E5",
"1X c #F3EDE6",
"2X c #FFEDE3",
"3X c #F1EDED",
"4X c #FBEDED",
"5X c #FDE0E4",
"6X c #ECF2E3",
"7X c #EDF1ED",
"8X c #F1F1EE",
"9X c #FCF4ED",
"0X c #FDFBEC",
"qX c #FAF7E8",
"wX c #EDEDF1",
"eX c #F2EEF2",
"rX c #FDEEF3",
"tX c #EEF2F1",
"yX c #F4F4F4",
"uX c #FAF5F5",
"iX c #F5F9F5",
"pX c #FBFAF6",
"aX c #F4F5F9",
"sX c #FAF6FA",
"dX c #F6FAFA",
"fX c #FDFDFD",
/* pixels */
",X,X,XyXfXfXfX,X,X7XfXfXfXfX,X,X8XfXfXfX,X,XwXsXfXdXsXwXwXwXfXfXfXyX,X,XyXfXfXfX,X,X,XfXfXfXyX,XtX3X",
",XyX,XyXfXfXfX,X,XeXfXfXfXyX,X,X3XfXfXfXwXyXwXsXfXfXdXeXwXeXfXfXfX7X,X,XsXfXfXsXyX,X7XsXfXfXiXtX,X,X",
",X,X,XsXfXfXfX,X,X,XsXfXfXyX,X,X8XfXfXfX,X,X,XdXfXfXfX,X,XeXfXfXfXyX,X,XyXfXfXfX,X,X,XsXfXfXyX>X,X,X",
"yXyXyXyXsXyXdXyXyXiXyXyXsXyXiXyXpXyXpXyXsXyXaXaXsXyXsXyXuXuXuXaXsXyXyXyXyXiXyXyXyXiXyXiXyXdXiXyXaXyX",
"fXfXfXsX,X,XyXfXfXfXyX,XyXiXfXfXsX7X,X,XfXfXfXtX,X7XyXfXfXpX3X3X,XsXfXfXyX,X,X,XfXfXfXyX,X,XfXfXfXfX",
"fXfXfXiX,X7XyXfXfXfXyX,X,XsXfXfXpX>X7X,XfXiXfXtX>X,X8XfXfXfX3X3X,XiXfXfXsX,X,XwXfXfXfXyX,X,XsXfXfXfX",
"fXfXsXyXyXyXyXyXfXsXyXyXyXyXsXsXiXyX8XyXfXdXfXiXtXtXyXfXfXpX8X8XtXsXpXfXfXyXyXyXfXsXsXyXyXyXiXdXfXfX",
",X,X,XiXfXfXsXeX,X7XsXfXfXyX,X,XyXfXfXfX,X,X7XiXfXfXyX7X>X8XfXfXsXyX,X,XyXfXfXfX,X,XiXiXfXsXyX,X,X,X",
",X,X,XyXfXfXfX,X,X,XfXfXfXyX,X,XeXfXfXfXeXeXeXsXfXfXsX,X,XyXfXsXfXyX,XeXyXfXfXfXyX,X,XfXfXfXyX7X,X,X",
",XyX,XyXsXfXfXyX,X,XfXfXfXsXyX,XsXfXfXsXeX,XeXuXfXfXfX,X,X7XfXfXfXwX7X,XyXfXfXfX,X,X8XfXfXfXyX,X,XtX",
"fXfXfXyX,XyXyXyXfXsXyX,X,XyXfXfXsXeXyXyXfXsXfXsXyX3XeXsXfXfXtX7X,XuXsXfXyX,X7X,XfXsXyXwXyX,XsXfXfXfX",
"fXfXfXaX,X,XyXfXfXfX,XyX,XfXfXfXdXwXwXwXfXfXfX3X3X:XsXfXfXyXyX7X,XfXfXfXsX,XyX,XfXfXfXyXyX,XpXfXfXfX",
"fXfXfXsX,XyXyXfXfXfX7X,X,XsXfXfXfX>X>XtXfXfXfXuXuX4XuXfXfXfX3X:X8XuXfXfXyXwX:XyXfXfXfXyX,X,XdXfXfXfX",
"sXyXyXyXsXyXyXyXyXsXyXsXiXsXyX,XaXiXaXyXsXrX@X[.t.G 6.e.r.s.OXuXuXsXyXyXsXyXyXsXyXyXyXyXfXsXyXyXyXyX",
",X,X,XyXfXfXfX7X,X,XfXfXfXyXyX,XyXfXfXuXXXe.H F Z F 7.F V ; - r  XyX3X,XyXfXfXfX,X,X,XsXfXfXyX,X,XeX",
",X7X,XyXfXfXfX,X7X,XfXfXfXyX,X3X4XfX@XL.l.G.l.g.k.7.L 7.B F V : ; w.4XuX8XfXfXfX,X,XtXfXfXfXyXwX,X,X",
"3XyXeXsXdXfXiXyXyXeXfXsXiXuXeXqX9XoXh.h.T.Z.g.j.G.K.q.q.e.F 6.B 3 3 ~ =X9XpXuXpXyX8X8XfXdXaXdX3XyXyX",
"fXfXfXsXwX>XtXfXfXfX,X,X8XpXpX0X&XM.N.+.).x.B.x.Y.G.h.g.g.H.8.M j y : b =X1X,X,XfXfXfX>X,XwXyXfXfXfX",
"fXpXfXsXwXtXwXfXfXfX7X1X1XqX-X].-.*.D.D.S.S.&.&.o.@.N.M.Z.Q g.o.p p 4 2 e *X,X8XfXfXfXyXyX,XsXfXfXfX",
"fXpXfXsX3X,XeXfXfXdXiX1X2X&X(.=.C.5...F.+.S.x.B.B.).1.1.O.2.U m a p 6 2 < i.9X7XfXfXiX7X,X:XsXfXfXfX",
"6X7XwXaXfXfXsX3XaXwXsX9X-X(.R.W.Q.Q.C.4.F.M.B. .@.@.N._.4.E.<.s d a p 2 < .XfXfXaXwXyXpXfXpXrXwXyXeX",
"6X7X>XaXfXfXfX3XaXwXfX0X%Xc.W.!.R.).A.M.F.S...B.D.2.F.2.E.5.,.} d d 6 2 E 0XfX X|.eX,XsXpXfXsX,XwX,X",
">XtXtXaXfXfXpX,XwXwXfX-XR.c.).).oX`.`.).%.| 1.$...1.` V.5.5.E.E.-.n z ~ .Xd.9 $ & ;XwXeXpXfXyX3X,X,X",
"dXdXdXaX8X8X9XsXsXdX0X%XW._.`.oXoXoX'.A.D.3.$.1. .D.C.$.4.' *.*.V.=.i.A $   @ . @  XaXsX1XpXyXfXsXsX",
"fXfXfXiX>X*X7XfXfXfX-X~.(.X.7.oX#XXX'.Z.2.) m I #.`  .2.#.3.:.5.E.v.D X # # $ @ + <XfXyX,X,XdXfXfXfX",
"fXfXfXyX6X6XyXfXfXpX&X~.v.* = P.#X#XI.b.| u N u ` &.$.) f Y ^ ^ R =.w.% & > $ o 9 8XfXyX,X,XyXfXfXfX",
"sXsXsXyX6X6XiXyXyXpX/.R.w.c 7.{.{.OX[.t.x m x u #.#.) ..:.[ ' ' { -.w.O @ $ > + W iXyXyX7XyXaXdXsXsX",
"eXeXwXyXfXpXfX7X,X:X^.~.~.t.H.[.P.OXp.V 0 z v u I ` :.^ ' ( ,.( { ;.n < #   $ o d.8X7XfXfXfXyX,XtX7X",
"eXeX:XyXfXfXiX:X3X3X*XU.u.u.p.H.J.{.J.9.F G h O.1.3.[ [ #.( ( } <.{ R b d.w + #  X8X:XfXfXfXsX,X,X,X",
"wXeXeXuXsXfXdXiXwX8XpX=XE c G e.G 9.J.t.Z K Q O. .I P ] g ] Y } Y Y 5 w t $X^.d.iX8X3XfXpXpXiX,XwXyX",
"fXdXuXsXeXwXaXdXfXfX6XqX^.e D c e S z.h.M M U U #.#.#.g / / >.[ g s n 0 $ d.iXaXfXsXfXuX1X:XsXfXfXfX",
"fXfXfXsX3XwXaXfXfXfX8X:XyX^.e C S C D J U U  .U I N I ` ` #.P I s a z ; w  XyXeXfXfXfX,X8X6XiXfXfXfX",
"fXfXfXyX,X,XyXfXfXfX8X:X7XpX*Xi.w.S h : j M N M o.U U x.j.j.j.U v l , 9.qX8X,XwXfXdXfXeX,X,XiXfXfXfX",
"tXtXyXdXsXdXaXyXyXyXsXfXsXyXaX3X4X#Xl.D l i N M L g.Y.g.Y.k.k B V q w.pXyXpXfXfXaXaXsXaXfXsXiX7XyXyX",
",X,X<XaXfXfXfX,XyX,XyXfXfXyX,XeXaXfXfX@Xt.Z B l.8.G.G.k.7.7.F r - 9.9X1X8XfXfXdXwX,X,XsXfXfXyX:X,X,X",
",XyX,XyXfXfXfX,X,X,XfXfXdXuX,X>XtXfXfXfXrX5Xp.G Z F e.6.r r 7 ; J.9X1X:XiXdXdXfX,XwX,XsXfXfX8X,X,X8X",
"yXyXyXyXiXsXsXyXsXyXfXsXsXyXyXaXaXaXaXuXrX4XfX4X}.0.H 0.0.a.[.;XpX8XiX7X7XiXiXiXyXsXeXfXuXuXyXyXyXaX",
"fXfXfXyX,XyX8XsXfXiX7X,X,XiXfXfXdX>XyX3XsXfXfX3X3XuXiXfXaXdXwXyX3XfXdXfXdX6X>X7XfXfXuXrX,X,XdXfXfXfX",
"fXfXfXyX,XtXyXfXfXfXyX,X,XiXfXfXiX8X:X:XfXfXfXuX,X,XyXfXfXiXyX,X7XfXfXfXiX>X>XiXfXfXfXuXeXwXaXfXfXfX",
"fXfXfXsX,X,XyXfXfXfX,X,XyXsXfXfXpX8X:X3XfXfXsXyX3X,XyXfXdXfX,X7X,XdXfXfXtXtXiX7XfXfXfXeXeXeXdXdXfXfX",
",XyX,XyXfXfXsX,X,X,XfXfXfXsX7X,XtXfXfXfXtXtXwXsXfXfXdXwXeX3XfXfXsXaXwX,XyXfXfXfX3X3X3XfXfXfXyXtX,X,X",
",X,X,XsXfXfXfX,X,XyXfXfXfXyX,X,XyXfXfXfX,XwXwXsXfXfXsXwX3XeXfXfXfXeX,XwXyXfXfXfX3X:X3XpXfXfXyXwXyX,X",
",X,X7XyXfXfXaXyX,XyXiXfXfXiX,X,XsXfXfXfXwXeXwXsXfXfXaXtX,XeXdXfXfXsX,X3XuXfXfXsX3X,XyXpXfXfXiX>X,X,X",
"fXsXsXyXyXyX8XdXsXfX,XyXyXyXsXfXsXeXeXyXaXdXfXdXtXtXaXfXsXfX,XyXwXsXsXfXuX3XuXuXfXpXpX,XtXtXdXfXfXfX",
"fXfXfXyX,X,X7XfXfXfXwX7X,XsXfXfXfX,X,X,XfXfXfX7XtX,X7XfXfXfX:X7XwXsXfXfXuXeXeX,XfXfXfXtX7X,XiXfXfXfX",
"fXfXfXsX7X,XyXsXfXfXyX,X,XyXfXfXsX,X,X,XfXfXfX8X,X:X8XfXfXpX7X,X,XsXfXfXyX,X,XyXfXfXfX7X,X,XiXfXfXfX",
"yXyXyXsXsXsXsXyXyXyXsXiXfXsXyXyXaXdXfXyXdXyXyX8XpXuXuX8XuXyXfXsXiXiXyXyXaXdXaXaXyXaXtXfXpXpX8X8XyXyX",
",X7X,XyXfXfXfX,X8X,XfXfXfXyX,X,XtXfXfXfX7X,X,XpXfXfXpX3X3XyXfXfXfX7X,X:XiXfXfXfXwXtX,XfXfXfXyX8X,X,X",
"7X,X,XdXfXfXfX,XwX8XfXfXfXyX,XwXyXfXfXfXyX,X,XsXfXfXsX,X,X3XfXfXfXtX,X,XyXfXfXfX,X7X,XdXfXfXiX,X,X,X",
"eX,X,XyXfXfXfX,X,X,XsXfXfXyX,X,XyXfXfXfX,XyX,XsXfXfXsX7X,XyXfXfXfXyX,X,XiXfXfXfX,XyX,XfXfXfXsX,X,XyX"
};
