/* XPM */
static char *result[] = {
/* columns rows colors chars-per-pixel */
"50 50 35 1 ",
"  c #004F99",
". c #071119",
"X c #77A1AE",
"o c #90C4D4",
"O c #A4D2E1",
"+ c #04090D",
"@ c #00498F",
"# c #93C8D9",
"$ c #C2E4EE",
"% c #000101",
"& c #8ABCCC",
"* c #5F7E88",
"= c #2F3C40",
"- c #192125",
"; c #242E31",
": c #001C36",
"> c #3E5157",
", c #002F5C",
"< c #8DA7AE",
"1 c #61848F",
"2 c #004484",
"3 c #A7C5CE",
"4 c #00264A",
"5 c #597680",
"6 c #4C656D",
"7 c #6D95A2",
"8 c #BCDDE7",
"9 c #798F95",
"0 c #83B2C1",
"q c #8199A0",
"w c #003E77",
"e c #BFE1EB",
"r c white",
"t c #64757A",
"y c #ADCBD4",
/* pixels */
"                            :%%-%%.               ",
"                         %###########+@           ",
"                      ,################o2         ",
"              4%%%+  &###################%        ",
"          @-#######%######################X       ",
"         o#+$$;###&########################X      ",
"       @####################################%     ",
"       :6&###################################     ",
"            *################################=    ",
"             #0###############################    ",
"             %################################,   ",
"            ,##############################%>#;   ",
"            ###############################r%##   ",
"           %################################o##%  ",
"           #####################################2 ",
"          *####################-;q33<=+####-##### ",
"          ####################$$$$q;=y$$$%#######.",
"         %############*######><6OOO:    %3$+#####=",
"         ###########1$$######:+OOOO5       +$o%##.",
"         ##########e$$$######  OOOOX         %$%*@",
"        .########o$$$$$#####5  %OOO+           ,4 ",
"        7#######X$$$$$@#####:   OOO4              ",
"        ########$$$$% %#####    %OO               ",
"        #######$$$$   #####X     =@               ",
"       2######9$$8    #####                       ",
"       %######$$8    +####+                       ",
"       -#####$$$     ####1                        ",
"       &#####$$     +###%                         ",
"       #####>$+     %#.                           ",
"       #####$<                                    ",
"       ####7$                                     ",
"       ####9%                                     ",
"       ####$                                      ",
"       ####%                                      ",
"       ###;                                       ",
"       ###t                                       ",
"       ###+                                       ",
"       ###                                        ",
"      %###@                                       ",
"    *####1##0                                     ",
"   #6.###&#.O&                                    ",
"  #<$$######%#                                    ",
" >%$$#########+                                   ",
" #*>##########%                                   ",
"%#############+                                   ",
"X#######X+ow +                                    ",
"####%@                                            ",
"###                                               ",
"5#                                                ",
".                                                 "
};
