/* XPM */
static char *result[] = {
/* columns rows colors chars-per-pixel */
"50 50 34 1 ",
"  c #004F99",
". c #00498F",
"X c #77A1AE",
"o c #90C4D4",
"O c #A4D2E1",
"+ c #04090D",
"@ c #071119",
"# c #93C8D9",
"$ c #C2E4EE",
"% c #000101",
"& c #8ABCCC",
"* c #5F7E88",
"= c #192125",
"- c #2F3C40",
"; c #242E31",
": c #001C36",
"> c #3E5157",
", c #002F5C",
"< c #8DA7AE",
"1 c #61848F",
"2 c #004484",
"3 c #00264A",
"4 c #A7C5CE",
"5 c #4C656D",
"6 c #597680",
"7 c #6D95A2",
"8 c #BCDDE7",
"9 c #798F95",
"0 c #83B2C1",
"q c #8199A0",
"w c #64757A",
"e c white",
"r c #ADCBD4",
"t c #003E77",
/* pixels */
"                              .@-@                ",
"                             3*####2              ",
"                             ,%#####%             ",
"                              $%######;,          ",
"                              %o#########-        ",
"                               $####o%>####%      ",
"                               ++#=##e%#####X     ",
"                                $############X    ",
"                                4%############%   ",
"                                %$#############2  ",
"                                 $#############o  ",
"                                 $+#############. ",
"                                 r-#############+ ",
"                                 -<############## ",
"                            3+X6:;4############## ",
"                          .OOOOOOq4##############@",
"                          -OOOOOO$q##############%",
"                           %OOOOO$;##############%",
"                             %OO5$=##############=",
"                               +<$###############%",
"                               :>################%",
"                            :6###################:",
"                          X###################### ",
"                        +######################## ",
"                       1########################% ",
"                      %#########################  ",
"                      ##########################  ",
"                     @#####%.$$$*##############,  ",
"                     ###+   $$$$##############&   ",
"                     %+    %$$$1##############    ",
"                           $$$$##############%    ",
"                          $$$$##############&#+   ",
"                         8$$$o################%   ",
"                        8$$$X#################%   ",
"                       $$$$###################%   ",
"     +%+             +$$$9##############0###;#3   ",
"    +####&          <$$$###############%####$#    ",
"     ###%O0       %$$>################,  *##$#    ",
"    t####@#     %$97################%     ##+=    ",
"    o######. +w;##################*       ###.    ",
"    +####&1#####################%         &#o     ",
"    X#######################7@            5#      ",
"    ##################&=%2                :.      ",
"    #######%                                      ",
"   .####$@#                                       ",
"   %###$$5*                                       ",
"   ###>$<#                                        ",
"  ####*%#                                         ",
" ######>                                          ",
"@6##X%                                            "
};
