/* XPM */
static char *result[] = {
/* columns rows colors chars-per-pixel */
"50 50 140 2 ",
"   c black",
".  c #000001",
"X  c #000101",
"o  c #010101",
"O  c #000102",
"+  c #010202",
"@  c #000203",
"#  c #020202",
"$  c #020303",
"%  c #000204",
"&  c #000305",
"*  c #030404",
"=  c #020405",
"-  c #030506",
";  c #040505",
":  c #050707",
">  c #00060C",
",  c #00070D",
"<  c #050809",
"1  c #070808",
"2  c #070909",
"3  c #00080F",
"4  c #080B0C",
"5  c #090C0D",
"6  c #090D0E",
"7  c #0C0E0F",
"8  c #000910",
"9  c #010910",
"0  c #000912",
"q  c #000A14",
"w  c #000B15",
"e  c #0B0F10",
"r  c #000E1C",
"t  c #000F1D",
"y  c #000F1E",
"u  c #0D1314",
"i  c #0E1314",
"p  c #011425",
"a  c #00162B",
"s  c #171F22",
"d  c #181F23",
"f  c #001C35",
"g  c #001D38",
"h  c #001E3B",
"j  c #182023",
"k  c #1A2427",
"l  c #1D272A",
"z  c #1E2A2D",
"x  c #00203E",
"c  c #212C30",
"v  c #243136",
"b  c #293032",
"n  c #283033",
"m  c #2B373B",
"M  c #28383D",
"N  c #012547",
"B  c #00264B",
"V  c #00284C",
"C  c #002D58",
"Z  c #002E59",
"A  c #343F42",
"S  c #003260",
"D  c #003261",
"F  c #003E77",
"G  c #2E4045",
"H  c #364144",
"J  c #36494F",
"K  c #384C53",
"L  c #3F565D",
"P  c #40575F",
"I  c #485458",
"U  c #455E67",
"Y  c #4C6870",
"T  c #526A71",
"R  c #5B757E",
"E  c #64757A",
"W  c #004382",
"Q  c #004585",
"!  c #00488B",
"~  c #00488C",
"^  c #00498D",
"/  c #004A8E",
"(  c #004A8F",
")  c #004B92",
"_  c #004C94",
"`  c #004D96",
"'  c #004E97",
"]  c #004F99",
"[  c #577680",
"{  c #587781",
"}  c #5B7D87",
"|  c #5C7E89",
" . c #5D7F8A",
".. c #5D7F8B",
"X. c #697C81",
"o. c #5E808A",
"O. c #60828D",
"+. c #648894",
"@. c #798E94",
"#. c #6C939F",
"$. c #7A9096",
"%. c #6F97A5",
"&. c #739CA9",
"*. c #739CAA",
"=. c #759FAD",
"-. c #7B9FAB",
";. c #78A4B1",
":. c #79A4B2",
">. c #79A5B3",
",. c #80989F",
"<. c #8299A0",
"1. c #8CA5AC",
"2. c #8DA6AC",
"3. c #8CA7AF",
"4. c #8FA9B1",
"5. c #81B0BF",
"6. c #85B4C3",
"7. c #87B8C8",
"8. c #89BACA",
"9. c #89BBCB",
"0. c #8ABBCB",
"q. c #8BBDCD",
"w. c #8CBFCF",
"e. c #8EC1D2",
"r. c #90C4D4",
"t. c #91C5D5",
"y. c #91C5D6",
"u. c #92C6D7",
"i. c #93C8D9",
"p. c #A3C0C9",
"a. c #A9C6CF",
"s. c #A9C7D0",
"d. c #ADCBD4",
"f. c #A4D2E1",
"g. c #BBDCE6",
"h. c #BCDDE7",
"j. c #BFE1EB",
"k. c #C1E3ED",
"l. c #C2E4EE",
"z. c white",
/* pixels */
"] ] ] ] ] ] ] ] ] ] ] ] ] ] ] r   = d - . h ] ] ] ] ] ] ] ] ] ] ] ] ] ] ] ] ] ] ] ] ] ] ] ] ] ] ] ] ",
"] ] ] ] ] ] ] ] ] ] ] ) 6 i.i.i.i.i.i.i.i.i.i.i.  ] ] ] ] ] ] ] ] ] ] ] ] ] ] ] ] ] ] ] ] ] ] ] ] ] ",
"] ] ] ] ] ] ] ] ] Q y.i.i.i.i.i.i.i.i.i.i.i.i.i.i.i.i.C ] ] ] ] ] ] ] ] ] ] ] ] ] ] ] ] ] ] ] ] ] ] ",
"] ] ] ] ] ] ] ] o i.i.i.i.i.i.i.i.i.i.i.i.i.i.i.i.i.i.i.9.' ] q .   @ B ] ] ] ] ] ] ] ] ] ] ] ] ] ] ",
"] ] ] ] ] ] ] ;.u.i.i.i.i.i.i.i.i.i.i.i.i.i.i.i.i.i.i.i.i.i.  i.i.i.i.i.i.i.j ~ ] ] ] ] ] ] ] ] ] ] ",
"] ] ] ] ] ] *.i.i.i.i.i.i.i.i.i.i.i.i.i.i.i.i.i.i.i.i.i.i.i.i.w.i.i.i.z l.l.6 i.r.] ] ] ] ] ] ] ] ] ",
"] ] ] ] ]   i.i.i.i.i.i.i.i.i.i.i.i.i.i.i.i.i.i.i.i.i.i.i.i.i.i.i.i.i.i.i.i.i.i.i.i.! ] ] ] ] ] ] ] ",
"] ] ] ] ] i.i.i.i.i.i.i.i.i.i.i.i.i.i.i.i.i.i.i.i.i.i.i.i.i.i.i.i.i.i.i.i.i.i.i.8.U f ] ] ] ] ] ] ] ",
"] ] ] ] G i.i.i.i.i.i.i.i.i.i.i.i.i.i.i.i.i.i.i.i.i.i.i.i.i.i.i.i.i.i.i.i. .] ] ] ] ] ] ] ] ] ] ] ] ",
"] ] ] ] i.i.i.i.i.i.i.i.i.i.i.i.i.i.i.i.i.i.i.i.i.i.i.i.i.i.i.i.i.i.i.5.i.] ] ] ] ] ] ] ] ] ] ] ] ] ",
"] ] ] S i.i.i.i.i.i.i.i.i.i.i.i.i.i.i.i.i.i.i.i.i.i.i.i.i.i.i.i.i.i.i.i.+ ] ] ] ] ] ] ] ] ] ] ] ] ] ",
"] ] ] c i.J O i.i.i.i.i.i.i.i.i.i.i.i.i.i.i.i.i.i.i.i.i.i.i.i.i.i.i.i.i.i.D ] ] ] ] ] ] ] ] ] ] ] ] ",
"] ] ] i.i.. z.i.i.i.i.i.i.i.i.i.i.i.i.i.i.i.i.i.i.i.i.i.i.i.i.i.i.i.i.i.i.i.] ] ] ] ] ] ] ] ] ] ] ] ",
"] ] & i.i.t.i.i.i.i.i.i.i.i.i.i.i.i.i.i.i.i.i.i.i.i.i.i.i.i.i.i.i.i.i.i.i.i.* ] ] ] ] ] ] ] ] ] ] ] ",
"] W i.i.i.i.i.i.i.i.i.i.i.i.i.i.i.i.i.i.i.i.i.i.i.i.i.i.i.i.i.i.i.i.i.i.i.i.i.] ] ] ] ] ] ] ] ] ] ] ",
"] i.i.i.i.i.s i.i.i.i.< A 4.s.p.<.n l i.i.i.i.i.i.i.i.i.i.i.i.i.i.i.i.i.i.i.i.o.] ] ] ] ] ] ] ] ] ] ",
"y i.i.i.i.i.i.i.; l.l.l.d.H b ,.k.l.l.l.i.i.i.i.i.i.i.i.i.i.i.i.i.i.i.i.i.i.i.i.] ] ] ] ] ] ] ] ] ] ",
"M i.i.i.i.i.7 l.a.% ] ] ] ] x f.f.f.T 3.K i.i.i.i.i.i...i.i.i.i.i.i.i.i.i.i.i.i.  ] ] ] ] ] ] ] ] ] ",
"i i.i.$ e.l.1 ] ] ] ] ] ] ] R f.f.f.f.8 g i.i.i.i.i.i.l.l.O.i.i.i.i.i.i.i.i.i.i.i.] ] ] ] ] ] ] ] ] ",
"^ | X l.  ] ] ] ] ] ] ] ] ] -.f.f.f.f.] ] i.i.i.i.i.i.l.l.l.j.i.i.i.i.i.i.i.i.i.i.] ] ] ] ] ] ] ] ] ",
"] V Z ] ] ] ] ] ] ] ] ] ] ] 2 f.f.f.. ] ] { i.i.i.i.i.l.l.l.l.l.r.i.i.i.i.i.i.i.i.t ] ] ] ] ] ] ] ] ",
"] ] ] ] ] ] ] ] ] ] ] ] ] ] N f.f.f.] ] ] a i.i.i.i.i.( l.l.l.l.l.>.i.i.i.i.i.i.i.#.] ] ] ] ] ] ] ] ",
"] ] ] ] ] ] ] ] ] ] ] ] ] ] ] f.f.  ] ] ] ] i.i.i.i.i.  ] X l.l.l.l.u.i.i.i.i.i.i.i.] ] ] ] ] ] ] ] ",
"] ] ] ] ] ] ] ] ] ] ] ] ] ] ] / m ] ] ] ] ] &.i.i.i.i.i.] ] ] l.l.l.l.i.i.i.i.i.i.i.] ] ] ] ] ] ] ] ",
"] ] ] ] ] ] ] ] ] ] ] ] ] ] ] ] ] ] ] ] ] ] ` i.i.i.i.i.] ] ] ] g.l.l.@.i.i.i.i.i.i.Q ] ] ] ] ] ] ] ",
"] ] ] ] ] ] ] ] ] ] ] ] ] ] ] ] ] ] ] ] ] ] ] 5 i.i.i.i.4 ] ] ] ] h.l.l.i.i.i.i.i.i.  ] ] ] ] ] ] ] ",
"] ] ] ] ] ] ] ] ] ] ] ] ] ] ] ] ] ] ] ] ] ] ] ] O.i.i.i.i.] ] ] ] ] l.l.k.i.i.i.i.i.k ] ] ] ] ] ] ] ",
"] ] ] ] ] ] ] ] ] ] ] ] ] ] ] ] ] ] ] ] ] ] ] ] ]   i.i.i., ] ] ] ] ] l.l.i.i.i.i.i.0.] ] ] ] ] ] ] ",
"] ] ] ] ] ] ] ] ] ] ] ] ] ] ] ] ] ] ] ] ] ] ] ] ] ] ] e i.  ] ] ] ] ] 9 l.I i.i.i.i.i.] ] ] ] ] ] ] ",
"] ] ] ] ] ] ] ] ] ] ] ] ] ] ] ] ] ] ] ] ] ] ] ] ] ] ] ] ] ] ] ] ] ] ] ] 1.l.i.i.i.i.i.] ] ] ] ] ] ] ",
"] ] ] ] ] ] ] ] ] ] ] ] ] ] ] ] ] ] ] ] ] ] ] ] ] ] ] ] ] ] ] ] ] ] ] ] ] l.%.i.i.i.i.] ] ] ] ] ] ] ",
"] ] ] ] ] ] ] ] ] ] ] ] ] ] ] ] ] ] ] ] ] ] ] ] ] ] ] ] ] ] ] ] ] ] ] ] ]   $.i.i.i.i.] ] ] ] ] ] ] ",
"] ] ] ] ] ] ] ] ] ] ] ] ] ] ] ] ] ] ] ] ] ] ] ] ] ] ] ] ] ] ] ] ] ] ] ] ] ] l.i.i.i.i.] ] ] ] ] ] ] ",
"] ] ] ] ] ] ] ] ] ] ] ] ] ] ] ] ] ] ] ] ] ] ] ] ] ] ] ] ] ] ] ] ] ] ] ] ] ] # i.i.i.i.] ] ] ] ] ] ] ",
"] ] ] ] ] ] ] ] ] ] ] ] ] ] ] ] ] ] ] ] ] ] ] ] ] ] ] ] ] ] ] ] ] ] ] ] ] ] ] v i.i.i.] ] ] ] ] ] ] ",
"] ] ] ] ] ] ] ] ] ] ] ] ] ] ] ] ] ] ] ] ] ] ] ] ] ] ] ] ] ] ] ] ] ] ] ] ] ] ] E i.i.i.] ] ] ] ] ] ] ",
"] ] ] ] ] ] ] ] ] ] ] ] ] ] ] ] ] ] ] ] ] ] ] ] ] ] ] ] ] ] ] ] ] ] ] ] ] ] ] 3 i.i.i.] ] ] ] ] ] ] ",
"] ] ] ] ] ] ] ] ] ] ] ] ] ] ] ] ] ] ] ] ] ] ] ] ] ] ] ] ] ] ] ] ] ] ] ] ] ] ] ] i.i.i.] ] ] ] ] ] ] ",
"] ] ] ] ] ] ] ] ] ] ] ] ] ] ] ] ] ] ] ] ] ] ] ] ] ] ] ] ] ] ] ] ] ] ] ] ] ] ] _ i.i.i.  ] ] ] ] ] ] ",
"] ] ] ] ] ] ] ] ] ] ] ] ] ] ] ] ] ] ] ] ] ] ] ] ] ] ] ] ] ] ] ] ] ] ] ] ] 6.i.i.+.i.i.i.i.} ] ] ] ] ",
"] ] ] ] ] ] ] ] ] ] ] ] ] ] ] ] ] ] ] ] ] ] ] ] ] ] ] ] ] ] ] ] ] ] ] ] 7.f.u i.q.i.i.i.u Y i.] ] ] ",
"] ] ] ] ] ] ] ] ] ] ] ] ] ] ] ] ] ] ] ] ] ] ] ] ] ] ] ] ] ] ] ] ] ] ] ] i.# i.i.i.i.i.i.l.l.2.i.] ] ",
"] ] ] ] ] ] ] ] ] ] ] ] ] ] ] ] ] ] ] ] ] ] ] ] ] ] ] ] ] ] ] ] ] ] ] 0 i.i.i.i.i.i.i.i.i.l.l.$ L ] ",
"] ] ] ] ] ] ] ] ] ] ] ] ] ] ] ] ] ] ] ] ] ] ] ] ] ] ] ] ] ] ] ] ] ] ] . i.i.i.i.i.i.i.i.i.i.P X.i.] ",
"] ] ] ] ] ] ] ] ] ] ] ] ] ] ] ] ] ] ] ] ] ] ] ] ] ] ] ] ] ] ] ] ] ] ] w i.i.i.i.i.i.i.i.i.i.i.i.i.  ",
"] ] ] ] ] ] ] ] ] ] ] ] ] ] ] ] ] ] ] ] ] ] ] ] ] ] ] ] ] ] ] ] ] ] ] ] : ] F e.> =.i.i.i.i.i.i.i.:.",
"] ] ] ] ] ] ] ] ] ] ] ] ] ] ] ] ] ] ] ] ] ] ] ] ] ] ] ] ] ] ] ] ] ] ] ] ] ] ] ] ] ] ] ] ^   i.i.i.i.",
"] ] ] ] ] ] ] ] ] ] ] ] ] ] ] ] ] ] ] ] ] ] ] ] ] ] ] ] ] ] ] ] ] ] ] ] ] ] ] ] ] ] ] ] ] ] ] i.i.i.",
"] ] ] ] ] ] ] ] ] ] ] ] ] ] ] ] ] ] ] ] ] ] ] ] ] ] ] ] ] ] ] ] ] ] ] ] ] ] ] ] ] ] ] ] ] ] ] ] i.[ ",
"] ] ] ] ] ] ] ] ] ] ] ] ] ] ] ] ] ] ] ] ] ] ] ] ] ] ] ] ] ] ] ] ] ] ] ] ] ] ] ] ] ] ] ] ] ] ] ] ] p "
};
