/* XPM */
static char *result[] = {
/* columns rows colors chars-per-pixel */
"50 50 35 1 ",
"  c #004F99",
". c #00498F",
"X c #77A1AE",
"o c #90C4D4",
"O c #A4D2E1",
"+ c #04090D",
"@ c #071119",
"# c #93C8D9",
"$ c #C2E4EE",
"% c #000101",
"& c #8ABCCC",
"* c #5F7E88",
"= c #2F3C40",
"- c #192125",
"; c #242E31",
": c #001C36",
"> c #3E5157",
", c #002F5C",
"< c #8DA7AE",
"1 c #61848F",
"2 c #004484",
"3 c #A7C5CE",
"4 c #00264A",
"5 c #597680",
"6 c #4C656D",
"7 c #6D95A2",
"8 c #BCDDE7",
"9 c #798F95",
"0 c #83B2C1",
"q c #8199A0",
"w c #003E77",
"e c #BFE1EB",
"r c white",
"t c #64757A",
"y c #ADCBD4",
/* pixels */
"                                            %X##5@",
"                                          >###### ",
"                                         #%*####  ",
"                                        #<$>###   ",
"                                       *6$$###%   ",
"                                       #@$####.   ",
"                                      %#######    ",
"      .:                2%-&##################    ",
"      #6            @7#######################X    ",
"     o#&         %#####################1&####+    ",
"    .###       *##################;t+ .######o    ",
"    -+##     %################79$%     #@####w    ",
"    #$##*  ,################>$$%       0O%###     ",
"    #$####%###############$$$<          &####+    ",
"   4#;###0##############9$$$+             +%+     ",
"   %###################$$$$                       ",
"   %#################X$$$8                        ",
"   %################o$$$8                         ",
"   +#&##############$$$$                          ",
"    %##############e$$$                           ",
"    ##############1$$$%    +%                     ",
"   &##############$$$$   +###                     ",
"  ,##############*$$$.%#####@                     ",
"  ##########################                      ",
"  #########################%                      ",
" %########################1                       ",
" ########################+                        ",
" ######################X                          ",
":###################5:                            ",
"%################>:                               ",
"%###############$<+                               ",
"-##############-$6OO%                             ",
"%##############;$OOOOO%                           ",
"%##############q$OOOOOO=                          ",
"@##############3qOOOOOO.                          ",
" ##############3;:5X+4                            ",
" ##############<=                                 ",
" +#############=y                                 ",
" .#############+$                                 ",
"  o#############$                                 ",
"  2#############$%                                ",
"   %############%3                                ",
"    X############$                                ",
"     X#####%r##-#++                               ",
"      %####>%o####$                               ",
"        =#########o%                              ",
"          ,;######%$                              ",
"             %#####%,                             ",
"              2####*4                             ",
"                @=@.                              "
};
