/* XPM */
static char *result[] = {
/* columns rows colors chars-per-pixel */
"50 50 31 1 ",
"  c #040707",
". c #050808",
"X c #090C0C",
"o c #030E14",
"O c #141717",
"+ c #242727",
"@ c #282B2B",
"# c #072D4F",
"$ c #014079",
"% c #444646",
"& c #555757",
"* c #6A6B6B",
"= c #6F7171",
"- c #767878",
"; c #7A7C7C",
": c #004B91",
"> c #004F99",
", c #87898A",
"< c #888A8A",
"1 c #949696",
"2 c #B8B9B9",
"3 c #B9BABA",
"4 c #C2C3C3",
"5 c #CDCDCD",
"6 c #D1D2D2",
"7 c #DBDCDC",
"8 c #ECECEC",
"9 c #EEEEEE",
"0 c #F6F6F6",
"q c #FCFDFD",
"w c white",
/* pixels */
">>>>>>>>>>>>>>>>>>>>>>      >>>>>>>>>>>>>>>>>>>>>>",
">>>>>>>>>>>>>>>>>>>>>> www     >>>>>>>>>>>>>>>>>>>",
">>>>>>>>>>>>>>>>>>>>>> wwwwwww  >>>>>>>>>>>>>>>>>>",
">>>>>>>>>>>>>>>>>>>>>> ww   www+ >>>>>>>>>>>>>>>>>",
">>>>>>>>>>>>>>>>>>>>>> wwwwww www >>>>>>>>>>>>>>>>",
">>>>>>>>>>>>>>>>>>>>>> wwwwwww ww  >>>>>>>>>>>>>>>",
">>>>>>>>>>>>>>>>>>>>>> w8  www0www    >>>>>>>>>>>>",
">>>>>>>>>>>>>>>>>>>>>> wwww www    w<   >>>>>>>>>>",
">>>>>>>>>>>>>>>>>>>>>> wwwww w  ww wwwww  >>>>>>>>",
">>>>>>>>>>>>>>>>>>>>>> wwwww   ww wwwwwww  #>>>>>>",
">>>>>>>>>>>>>>>>>>>>>> ww w  wwww wwwwwwww  >>>>>>",
">>>>>>>>>>>>>>>>>>>>> wwww  wwwww wwwwwwwww  >>>>>",
">>>>>>>>>>>>>>>>>>>>> www  wwwww wwwwwwwwwww  >>>>",
">>   >>>>>>>>>>>>>>>> w w w@wwww ww    wwwwww >>>>",
"       >>>>>>>>>>>>> www  wwwww  ww ww wwwwww  >>>",
"> wwww   >>>>>>>>>>> ww  www  ww*w wwwwwwwwwww >>>",
">  wwwww  >>>>>>>>> ww  wwww ww wwww   wwwwwww  >>",
">> wwwwww  >>>>>>> www  www www www www wwwwwww  >",
">>  wwwwww >>>>>>  ww   wwwwwww www   w wwwwwww  >",
">>> wwwwww  >>>>  ww  w ww wwww wwwww w wwwwwwww >",
">>>  wwwwww >>>> www ww  w wwww wwww     wwwwww  >",
">>>> wwww w  >>  ww  w ww wwww  www w wwwwwwwww  >",
">>>> wwwwwww >>   ,   ww=ww   wOwww   wwwwwwww  w ",
">>>> wwwww w  >>>  ww ww www4www wwwwwwwwwwww  ww ",
">>>>  wwwww 6 >>>  wwwww ww wwww www wwww5    ww  ",
">>>>> ww wwww $>  www ww ww wwww wwwwwwwwwwwwww  >",
">>>>> wwwwwww    w    wwwww%wwwww wwwwwwwwwwwww >>",
">>>>> www ww w  www ww  ww  www w wwwwwwwwwwwww >>",
">>>>> wwww w    wwwwwwwwwwww   ww 9wwwwwwwwwww  >>",
">>>>> wwwww   w wwwwww ww www wwww wwwwwwwwwww >>>",
">>>>> wwwwww wwww wwww ww www wwww- wwwwwwwww  >>>",
">>>>> wwww w  wwwww ww ww wwwwwwwww wwwwwwwww >>>>",
">>>>  wwwwww www wwww  www w wwwww w wwwwwww  >>>>",
">>>> wwwwww7w ww www ww   w w w  ww w wwwwww >>>>>",
">>>> wwwwXwww wwwwww www ww wwwwwww  w wwww >>>>>>",
">>>> wwwwww=ww ww    wwwwwwwwww ww w w  ww   >>>>>",
">>>  wwwwwwww   wwww wwwwwwwwwwwww wwww    w >>>>>",
">>> wwwwwwwww     www    ww ww www ;w w w ww >>>>>",
">>> wwwwwwww  >>   www ww w www ww  w www w   >>>>",
">> wwwwwwww  >> ww    wwww.ww ww    w wwwww   >>>>",
">  wwwwwww  >>> ww &   wwwwwwwwww w w w  ww   >>>>",
"> wwwwq    >>>> wwwww     wwwwwww 3 w ww www  >>>>",
">>      >>>>>>>> wwwwwww    wwwww  www w www >>>>>",
">>>>>>>>>>>>>>>>> wwwwwwww         ww ww www >>>>>",
">>>>>>>>>>>>>>>>>> wwww www w  >>> wwww  w1w >>>>>",
">>>>>>>>>>>>>>>>>>> 2wwwwwwww >>>> w w   www >>>>>",
">>>>>>>>>>>>>>>>>>>>  wwww w >>>>>  ww >:   >>>>>>",
">>>>>>>>>>>>>>>>>>>>>  wwwww >>>>>> w >>>>  >>>>>>",
">>>>>>>>>>>>>>>>>>>>>>>  w  >>>>>>>o >>>>>>>>>>>>>",
">>>>>>>>>>>>>>>>>>>>>>>>   >>>>>>>>>>>>>>>>>>>>>>>"
};
