/* XPM */
static char *result[] = {
/* columns rows colors chars-per-pixel */
"50 50 32 1 ",
"  c #000101",
". c #010202",
"X c #020303",
"o c #070B0B",
"O c #00080E",
"+ c #202323",
"@ c #212323",
"# c #002648",
"$ c #00376A",
"% c #404242",
"& c #535555",
"* c #6A6B6B",
"= c #717373",
"- c #797A7A",
"; c #7B7D7D",
": c #004B91",
"> c #004D96",
", c #004F99",
"< c #898B8B",
"1 c #8E8F8F",
"2 c #949595",
"3 c #BABBBB",
"4 c #BFC0C0",
"5 c #C1C2C2",
"6 c #CBCBCB",
"7 c #D7D7D7",
"8 c #DDDDDD",
"9 c gray93",
"0 c gray94",
"q c #F4F4F4",
"w c #FCFDFD",
"e c white",
/* pixels */
",,,,,,,,,,,,,,,,,,,,,,      ,,,,,,,,,,,,,,,,,,,,,,",
",,,,,,,,,,,,,,,,,,,     eee ,,,,,,,,,,,,,,,,,,,,,,",
",,,,,,,,,,,,,,,,,,  eeeeeee ,,,,,,,,,,,,,,,,,,,,,,",
",,,,,,,,,,,,,,,,, +eee   ee ,,,,,,,,,,,,,,,,,,,,,,",
",,,,,,,,,,,,,,,, eee eeeeee ,,,,,,,,,,,,,,,,,,,,,,",
",,,,,,,,,,,,,,,  ee eeeeeee ,,,,,,,,,,,,,,,,,,,,,,",
",,,,,,,,,,,,    eeeqeee  9e ,,,,,,,,,,,,,,,,,,,,,,",
",,,,,,,,,>   <e    eee eeee ,,,,,,,,,,,,,,,,,,,,,,",
",,,,,,,,  eeeee ee  e eeeee ,,,,,,,,,,,,,,,,,,,,,,",
",,,,,,#  eeeeeee ee   eeeee ,,,,,,,,,,,,,,,,,,,,,,",
",,,,,,  eeeeeeee eeee  e ee ,,,,,,,,,,,,,,,,,,,,,,",
",,,,,  eeeeeeeee eeeee  eeee ,,,,,,,,,,,,,,,,,,,,,",
",,,,  eeeeeeeeeee eeeee  eee ,,,,,,,,,,,,,,,,,,,,,",
",,,, eeeeee    ee eeee@e e e ,,,,,,,,,,,,,,,,   ,,",
",,,  eeeeee ee ee  eeeee  eee ,,,,,,,,,,,,,       ",
",,, eeeeeeeeeee e*ee  eee  ee ,,,,,,,,,,,   eeee ,",
",,  eeeeeee   eeee ee eeee  ee ,,,,,,,,,  eeeee  ,",
",  eeeeeee eee eee eee eee  eee ,,,,,,,  eeeeee ,,",
",  eeeeeee e   eee eeeeeee   ee  ,,,,,, eeeeee  ,,",
", eeeeeeee e eeeee eeee ee e  ee  ,,,,  eeeeee ,,,",
",  eeeeee     eeee eeee e  ee eee ,,,, eeeeee  ,,,",
",  eeeeeeeee e eee  eeee ee e  ee  ,,  e eeee ,,,,",
" e  eeeeeeee   eeeoe   ee=ee   1   ,, eeeeeee ,,,,",
" ee  eeeeeeeeeeee eee5eee ee ee  ,,,  e eeeee ,,,,",
"  ee    6eeee eee eeee ee eeeee  ,,, 7 eeeee  ,,,,",
",  eeeeeeeeeeeeee eeee ee ee eee  ,$ eeee ee ,,,,,",
",, eeeeeeeeeeeee eeeee%eeeee    e    eeeeeee ,,,,,",
",, eeeeeeeeeeeee e eee  ee  ee eee  e ee eee ,,,,,",
",,  eeeeeeeeeee0 ee   eeeeeeeeeeee    e eeee ,,,,,",
",,, eeeeeeeeeee eeee eee ee eeeeee e   eeeee ,,,,,",
",,,  eeeeeeeee -eeee eee ee eeee eeee eeeeee ,,,,,",
",,,, eeeeeeeee eeeeeeeee ee ee eeeee  e eeee ,,,,,",
",,,,  eeeeeee e eeeee e eee  eeee eee eeeeee  ,,,,",
",,,,, eeeeee e ee  e e e   ee eee ee e8eeeeee ,,,,",
",,,,,, eeee e  eeeeeee ee eee eeeeee eeeXeeee ,,,,",
",,,,,   ee  e e ee eeeeeeeeee    ee ee=eeeeee ,,,,",
",,,,, e    eeee eeeeeeeeeeeee eeee   eeeeeeee  ,,,",
",,,,, ee e e e; eee ee ee    eee     eeeeeeeee ,,,",
",,,,   e eee e  ee eee e ee eee   ,,  eeeeeeee ,,,",
",,,,   eeeee e    ee ee.eeee    ee ,,  eeeeeeee ,,",
",,,,   ee  e e e eeeeeeeeee   & ee ,,,  eeeeeee  ,",
",,,,  eee ee e 3 eeeeeee     eeeee ,,,,    weeee ,",
",,,,, eee e eee  eeeee    eeeeeee ,,,,,,,,      ,,",
",,,,, eee ee ee         eeeeeeee ,,,,,,,,,,,,,,,,,",
",,,,, e2e  eeee ,,,  e eee eeee ,,,,,,,,,,,,,,,,,,",
",,,,, eee   e e ,,,, eeeeeeee4 ,,,,,,,,,,,,,,,,,,,",
",,,,,,   :, ee  ,,,,, e eeee  ,,,,,,,,,,,,,,,,,,,,",
",,,,,,  ,,,, e ,,,,,, eeeee  ,,,,,,,,,,,,,,,,,,,,,",
",,,,,,,,,,,,, O,,,,,,,  e  ,,,,,,,,,,,,,,,,,,,,,,,",
",,,,,,,,,,,,,,,,,,,,,,,   ,,,,,,,,,,,,,,,,,,,,,,,,"
};
