/* XPM */
static char *result[] = {
/* columns rows colors chars-per-pixel */
"50 50 245 2 ",
"   c #325530",
".  c #54613A",
"X  c #36514E",
"o  c #3D586C",
"O  c #395B79",
"+  c #475A54",
"@  c #565B59",
"#  c #58654C",
"$  c #466058",
"%  c #586457",
"&  c #5F725B",
"*  c #72764F",
"=  c #626858",
"-  c #6E785D",
";  c #435A64",
":  c #565E69",
">  c #425D75",
",  c #576867",
"<  c #526A6F",
"1  c #49657B",
"2  c #586875",
"3  c #666867",
"4  c #6D6F6A",
"5  c #777969",
"6  c #68777B",
"7  c #777778",
"8  c #7B7C7C",
"9  c #867770",
"0  c #827B7A",
"q  c #7E8166",
"w  c #7C827B",
"e  c #84876A",
"r  c #888778",
"t  c #928A78",
"y  c #004F99",
"u  c #0B5393",
"i  c #025299",
"p  c #09559A",
"a  c #047096",
"s  c #3A6A8C",
"d  c #2C758B",
"f  c #2C6894",
"g  c #336C95",
"h  c #3C6D94",
"j  c #3C729A",
"k  c #3676A9",
"l  c #476D8C",
"z  c #506E8A",
"x  c #4A7989",
"c  c #557487",
"v  c #446F93",
"b  c #447293",
"n  c #4C7495",
"m  c #45769A",
"M  c #4D7A9A",
"N  c #577894",
"B  c #567D9C",
"V  c #5B7C9B",
"C  c #6D7984",
"Z  c #777D86",
"A  c #637E9A",
"S  c #477CA6",
"D  c #537EA3",
"F  c #877F83",
"G  c #07868C",
"H  c #0C868C",
"J  c #15848C",
"K  c #1C848C",
"L  c #18888D",
"P  c #028B94",
"I  c #0B8B94",
"U  c #0B8A97",
"Y  c #018E9B",
"T  c #178897",
"R  c #1B8A93",
"E  c #148B9A",
"W  c #099295",
"Q  c #02919D",
"!  c #0B929C",
"~  c #169197",
"^  c #14949B",
"/  c #24858B",
"(  c #2C858D",
")  c #33838B",
"_  c #38878C",
"`  c #248C93",
"'  c #2B8A93",
"]  c #298996",
"[  c #248D9C",
"{  c #378995",
"}  c #328C94",
"|  c #358D9C",
" . c #25949B",
".. c #39929B",
"X. c #158DAB",
"o. c #0593A0",
"O. c #0C93A2",
"+. c #1592A5",
"@. c #1B91A2",
"#. c #028EB8",
"$. c #0397BB",
"%. c #0294BC",
"&. c #0B94BB",
"*. c #1897BC",
"=. c #1C94BC",
"-. c #258EA1",
";. c #388BA5",
":. c #2393A2",
">. c #2B94A3",
",. c #2794AA",
"<. c #3393A4",
"1. c #3995A9",
"2. c #258EB8",
"3. c #368FB5",
"4. c #2293BC",
"5. c #2996B9",
"6. c #2C95BB",
"7. c #3995B5",
"8. c #3295BB",
"9. c #3499BD",
"0. c #3B9BBB",
"q. c #54878F",
"w. c #488796",
"e. c #568495",
"r. c #5C829E",
"t. c #6A838C",
"y. c #78838A",
"u. c #648597",
"i. c #7A8795",
"p. c #7E919B",
"a. c #4686A7",
"s. c #4D83AB",
"d. c #5B84A4",
"f. c #5484AC",
"g. c #5789A8",
"h. c #5C8AAC",
"j. c #4392A5",
"k. c #4996A7",
"l. c #4295A9",
"z. c #4C96A9",
"x. c #5695A8",
"c. c #4B85B1",
"v. c #558BB4",
"b. c #5B8CB2",
"n. c #598DB9",
"m. c #4699B8",
"M. c #439BBD",
"N. c #5798B7",
"B. c #6386A3",
"V. c #6488A4",
"C. c #6B8CA4",
"Z. c #648CAC",
"A. c #6A8EAC",
"S. c #758CA3",
"D. c #6795A6",
"F. c #6592AC",
"G. c #6C92AE",
"H. c #7294AC",
"J. c #7897AB",
"K. c #648DB1",
"L. c #6593B4",
"P. c #6B94B2",
"I. c #699AB7",
"U. c #7295B2",
"Y. c #769BB5",
"T. c #48A5BD",
"R. c #53A6B9",
"E. c #7CA1BB",
"W. c #019CC3",
"Q. c #0B9AC5",
"!. c #029ECA",
"~. c #149CC4",
"^. c #1999C6",
"/. c #239BC5",
"(. c #2899C5",
"). c #3498C4",
"_. c #01A1C5",
"`. c #02A3CB",
"'. c #0BA4CC",
"]. c #02A9CE",
"[. c #0DA8CD",
"{. c #14A4CB",
"}. c #15A6CA",
"|. c #1CA4CB",
" X c #1DA9CD",
".X c #06A7D2",
"XX c #0BAAD2",
"oX c #13A6D2",
"OX c #19A7D5",
"+X c #15ABD3",
"@X c #1CACD4",
"#X c #2CA5CC",
"$X c #25A8CC",
"%X c #32A2CB",
"&X c #3AA7CE",
"*X c #34AACE",
"=X c #23ACD5",
"-X c #2BABD3",
";X c #26ACD9",
":X c #36A8D0",
">X c #33ACD4",
",X c #26B0D6",
"<X c #30B0D7",
"1X c #4189C1",
"2X c #4799C4",
"3X c #579BC1",
"4X c #6A9DC2",
"5X c #48A6CE",
"6X c #4CAACE",
"7X c #50A6D1",
"8X c #6CA2C6",
"9X c #7BA7C9",
"0X c #7BABD2",
"qX c #79B2D9",
"wX c #7DBBE2",
"eX c #878686",
"rX c #918C83",
"tX c #8D9082",
"yX c #969486",
"uX c #878C91",
"iX c #8B9398",
"pX c #989B98",
"aX c #A1978E",
"sX c #A59D97",
"dX c #9FA08F",
"fX c #ACA79A",
"gX c #B9B09A",
"hX c #849BA9",
"jX c #909DAE",
"kX c #88A5AD",
"lX c #BAACA1",
"zX c #B1B5B1",
"xX c #CCBEB3",
"cX c #CDC5B7",
"vX c #84ACCD",
"bX c #85B0CE",
"nX c #83ADD1",
"mX c #87C7EC",
"MX c #98D1EF",
"NX c #87C9F0",
"BX c #8ECEF1",
"VX c #90CFF1",
"CX c #93D0F1",
"ZX c #93D1F2",
"AX c #D4CFC7",
/* pixels */
"y y y y y y y y y y y y y y y y y i i i wXZXZXZXZXZXZXVXZXmXi y y y y y y y y y y y y y y y y y y y ",
"y y y y y y y y y y y y y y y y k ZXZXZXZXZXZXZXZXZXVXBXMXMXMXMXCX1Xy y y y y y y y y y y y y y y y ",
"y y y y y y y y y y y y y i BXZXVXVXZXZXVXVXVXVXVXBXBXBXBXmXBXmXmXNXNXNXy y y y y y y y y y y y y y ",
"y y y y y y y y y y y y 0XnX0X0X0XnXnXnXnXqX0X9XvXbX9XvXvX9XE.9X8X8X4X8X4XI.y y y y y y y y y y y y ",
"y y y y y y y y y y y 7X7X8X7X7X7X7X6X6X7X6X6X5X:X5X:X5X&X%X).%X).%X#X).5X6X6Xi y y y y y y y y y y ",
"y y y y y y y y i (.:X-X*X*X&X*X:X>X*X>X>X&X&X&X#X:X:X:X%X&X:X&X:X%X).-X#X^.|.{.~.y y y y y y y y y ",
"y y y y y y y y `.Q.Q.}.$X X$X X#X#X#X$X*X$X*X#X(.^.^.(.^.^.~.^./.(.(.2XQ.Q.|.Q.{.`.y y y y y y y y ",
"y y y y y y y oX'..X+X}.[.{.'.].'.[.}. X$X=X-X XOX;X X|.oX{.|..X].`.`.`.`.`.`.W.!.W.W.y y y y y y y ",
"y y y y y y .X.X.X.X.XXXXX[.|.XX'.{.+X[.oX X X X[.oX+X[.XX].].].].!.`.`.`.!._.W._.W.W.W.y y y y y y ",
"y y y y y Q.OX+XoXOXOXOXOX=X+X@X=X=X;X=X=X=XoXOX@XoXOX.X.XXX.X`.].`.`.`.!.`._.`._.W.W.W.%.y y y y y ",
"y y y y i +X<X<X,X;X@X=X;X,X;X<X-X;X<X;X=X;XOX+X$XOXOXOXoX`.`.`.`.!.`.W.W.`._._.W.$.W.W.$.i y y y y ",
"y y y y XXOX<X<X@X@X=XOX+X+X,X@X;X=X,X@X;X=X+X+XOX;X|.oXoXoX.X'.'.'.`.!.`.!.`.W.W.!.!.!.W.W.y y y y ",
"y y y oXXXXX<XXX+X.X.XXX.XXX@X,X=X@X+X,X@X+XXXXXXX+X].`.`.`.].`.`.`._.W.!.!.!.W.`.W.W.W.!.W.W.y y y ",
"y y y XX@XXX,X+XXX+X+X@X@X.XXX+X+X+X+X].+X].].].].`.`._.`._._._._.W._.W.W.W.W.W.W.W.W.$.%.#.#.y y y ",
"y y +XXX@X<X;X,X+X,X+X,X,X,X,X,X,X=X=X+X-X X}. X].'.'.'.}.'._.W.W.W.W.$.W.W.W.#.%.#.#.#.#.#.#.#.y y ",
"y y =X@X;X<X=X-X+X@X,X,X,X@X+X;X X>X#X>X#X-X-X(.$X|.~.'.*.Q.Q.Q.~.~.^.^.^.^.&.Q.^.^.*.(.(.3.2.).y y ",
"i a $X$X X#X$X$X X*X X*X-X-X#X>X*X*X*X#X>X$X%X%X).#X/.^./.(.(././.^.^./.~.(.).(.2.).3.).2X3XZ Z n y ",
"y *.$.$.%.%.%.$.$.}.&.|.~.~././.^.~.^.*.&.$.$.$.%.%.$.$.W.%.$.%.#.#.#.&.&.2.=.(.).1X3X4XZ uXK.1Xc.y ",
"y 6XT.5.5.#.=.%.&.%.%.&.&.&.&.*.&.&.&.=./.*.4.*.=.4.^.*.=.4.4.=.2.4.8.8.3.3.M.n.A.C iXU.c.D c.S s.i ",
"i 0.M.2XT.T.M.0.9.9.6.).(.5.6.(.5.&.&.5.*.9.5.5.5.6.9.6.6.5.5.3.3.2XN.I.hXy.C B K.K.b.K.c s.v.v.g.p ",
"l.R.T.7.R.0.M.m.7.5.9.5.6.6.).0.0.).6.9.0.0.0.).0.2XM.N.N.I.i.hXuXF V f.n.L.L.P.b.f.K.D D S D v.v.S ",
"7.7.2.7.m.8.8.5.2.2.8.8.0.7.0.0.M.0.M.M.m.5X3XN.I.E.w 0 r 5 t.k n.I.I.Y.I.L.U.I.n.O 1 N c.c.;.a.;.S ",
"7.z.R.1.3.;.1.m.7.l.7.7.m.R.N.N.P.Y.Y.kXiXiXZ w uXr 4 K.h.< h.n.v.N.L.b.b.v.b.b.S f.S S S S N V k g ",
"F.J.F.F.S.uXZ Z w 8 w 7 eX7 uXjXiXt.C Z.G.G.H.P.G.L.Z.G.A.K.P.P.U.U.P.K.C.h.V c 2 c.D v.; + + X , , ",
"AXlXt cXq J.J.J.D.Y.H.P.N G.U.H.C.G.U.U.Y.J.Z U.Z.K.C.f.B.2 b.P.I.Y.U.6 w b.b.$ l ; 2 4 % % ; @ 2 @ ",
"e e t e q q e e iXG.F.s.h.Y.U.A.A.P.U.U.Y.Y.Z A.A.A.K.V D K.G.P.Y.F.u.6 , f.A f.f.n.X % 3 @ % # ; % ",
"y.fXgXyXgXt t tXr yXt pXpXjXB.k G.A.U.U.U.M l Z.K.K.C A 2 d.F.h.Z.G.Z.Z u.V 3 , $ % # 3 = 1 < + # X ",
"z.x.z.x.J.D.kXkXzXdXlXcXaXrXt rXuXH.U.U.U.S.C.h.D f.Z h.h.Z.F.G.h.h.g.V.L.L.Z.f.Z 8 4 @ + m n n v j ",
"7.m.l.l.1.l.k.x.x.x.D.J.kXpXrXaXpXsXrXtXH.A 6 A B.d.d.D g.1 D h.h.4 8 = d.D f.S , @ @ X V m j f g f ",
"+.>.,.:.<.<.<.1.1.l.w.k.x.h.D.D.hXZ pXr t y.iXS.A.Z.Z.d.Z.d.f.d.f.n n v D S S D N : % C e.$ 2 f X : ",
"i O.*.,.:.>.<.1.1.1.1.1.l.z.k.z.x.F.D.J.pXeXlX7 r y.p.i.h.M r.D d.B D N n m S m j > O n o j n f 1 i ",
"i +.O.,.,.:.,.1.,.<.1.l.l.k.l.k.R.x.D.N.N.L.p.F t q 7 w 4 & j r.B.B.B.B.d.V S m m v b v h h o f O i ",
"i X.,.+.@.[ :.>.<.>.1.1.1.<.1.k.z.z.z.z.z.x.x.J.eXsXrXrXe uXD d.M V.V.u.C.h.u.B M M m m B g h f f y ",
"y a ! @.@.@.@.,.@.:.:.<.<.<.<.l.l.l.z.l.1.k.j.x.D.G.A.7 0 r y.r.r.r.r.V.u.r.l m j b m n h h s h f y ",
"y y O.O.+.O.+.-.:.>.-.! [  .| | <.;.<.;...1.k.k.x.x.g.C.y.F gX5 w e.r.r.V h b M h g b h s s f s y y ",
"y y o.o.o.Q ^ :.! E [ [ [ >.-.~ ] R [ ] ....w...j.w.z.z.g.C 8 aXq q - N b b n h s b l l s s s f y y ",
"y y y +.+.@.O.^ :.<.:.>.-.a E E T T -.] | ....| j.a.x.w.a.d.Z r AXcXe @ 5 v h s s v l l = 3 @ y y y ",
"y y y Y ! Y Q Y Q :.:.~ U I E T T T T -.......;...j.;.j.w.x.u.6 t cX5 = * * N x l l n # = # . y y y ",
"y y y y Y O.Q ! ! Q ^ ^ ! ! :.E ~  .>.[ [ [ | | { } { | | w.e.N 0 rXgXrX5 * . c v > @ 3 = # y y y y ",
"y y y y y o.! Q Q Q o.! ! P P P U P I T ~ ` ` | } ..' { w.k.w.e.u.0 5 aX# q q 7 z X @     u y y y y ",
"y y y y y Y Q ! Q Q W ^ ! ! U P P U E E I T T ` [ } w.{ } w.w.e.u.t.4 4 gX* t . > l o ; o y y y y y ",
"y y y y y i O.Q Q Q Q Q ! ! ! ! I W I E E T T R ] ` ] ] ' { { w.q.e.A r 9 9 * # - 1 s > y y y y y y ",
"y y y y y y y Y Q Q Q ! ! Y P Y G P P ~ ~ R T ` / ] ] ] ' } { { w.q.N y.rX7 aXcX= 3 > y y y y y y y ",
"y y y y y y y y Q Q P Q W W ~  .~ ~ P P P L ` ` } ' / ] } ( ( ) w.x u.y.eX7 xX5 = # y y y y y y y y ",
"y y y y y y y y i Y P ^ ! ~  .~  .I I P I L L ` ` ' } ' } } ( ( ) w.q.N t.yXdXrX9 y y y y y y y y y ",
"y y y y y y y y y i i I W W W W W G H L J I L L R K / ` } ( ) _ ) x x t.2 y.iXp y y y y y y y y y y ",
"y y y y y y y y y y y y P W W G G P G I G R R / ' } ..' } } _ ) ) _ q.1 2 2 y y y y y y y y y y y y ",
"y y y y y y y y y y y i i i G G H L J L H L H / K J / _ / ' ( ) ( ) ) q.y y y y y y y y y y y y y y ",
"y y y y y y y y y y y y y y y y a G J H K J J O K / / ) _ _ ( ) d d y y y y y y y y y y y y y y y y ",
"y y y y y y y y y y y y y y y y y y i i J J G G K L / / _ / a u i i y i y y y y y y y y y y y y y y "
};
