/* XPM */
static char *result[] = {
/* columns rows colors chars-per-pixel */
"50 50 124 2 ",
"   c #010101",
".  c #060807",
"X  c #070908",
"o  c #0C0C0C",
"O  c #000A14",
"+  c #0E1211",
"@  c #03111D",
"#  c #101010",
"$  c #151817",
"%  c #171919",
"&  c #1A1C1C",
"*  c #001B35",
"=  c #001E3B",
"-  c #14283A",
";  c #222625",
":  c #232C29",
">  c #2C2D2D",
",  c #2C3B36",
"<  c #323B37",
"1  c #303E3D",
"2  c #34443F",
"3  c #002548",
"4  c #00294F",
"5  c #002950",
"6  c #00315F",
"7  c #003363",
"8  c #003668",
"9  c #003C73",
"0  c #3D4241",
"q  c #3B4F48",
"w  c #335367",
"e  c #424646",
"r  c #474748",
"t  c #444B4A",
"y  c #484C4C",
"u  c #42544F",
"i  c #475550",
"p  c #4B5552",
"a  c #465D55",
"s  c #505F5D",
"d  c #51615E",
"f  c #4C6462",
"g  c #576563",
"h  c #536B63",
"j  c #5B6B66",
"k  c #526A68",
"l  c #5B6E6A",
"z  c #567268",
"x  c #5B726D",
"c  c #626262",
"v  c #626C6B",
"b  c #63736D",
"n  c #657671",
"m  c #687070",
"M  c #657B75",
"N  c #697C76",
"B  c #657D7B",
"V  c #6A7F7A",
"C  c #747475",
"Z  c #608175",
"A  c #6B847D",
"S  c #6C887E",
"D  c #71867F",
"F  c #004789",
"G  c #004A8E",
"H  c #004D94",
"J  c #004F99",
"K  c #6C8482",
"L  c #6E8B81",
"P  c #738781",
"I  c #7C8585",
"U  c #738C84",
"Y  c #788E86",
"T  c #7A8F89",
"R  c #789087",
"E  c #7E938C",
"W  c #7B998E",
"Q  c #7D9990",
"!  c #7FA498",
"~  c #838A8A",
"^  c #80968E",
"/  c #839590",
"(  c #8D9797",
")  c #849A93",
"_  c #81A196",
"`  c #85A49A",
"'  c #8AA39B",
"]  c #91A29E",
"[  c #97A4A3",
"{  c #92AFA5",
"}  c #9AAAA7",
"|  c #8FB2A6",
" . c #93B1A7",
".. c #A3AEAE",
"X. c #AEAFB0",
"o. c #A5B3B2",
"O. c #ABB7B7",
"+. c #ADB9B9",
"@. c #B1BDBD",
"#. c #BDBEBF",
"$. c #9FC2B5",
"%. c #B5C2C2",
"&. c #B9C7C7",
"*. c #BCCACA",
"=. c #C6C7C7",
"-. c #C1CECE",
";. c #C8C9CB",
":. c #CFCFD0",
">. c #C4D2D2",
",. c #CBD4D4",
"<. c #CDDCDC",
"1. c #D5D6D8",
"2. c #D1DCDC",
"3. c #DADADB",
"4. c #D4E4E4",
"5. c #DBEBEB",
"6. c #DFF0F0",
"7. c #E7E7E7",
"8. c #E8E9EA",
"9. c #E4F5F5",
"0. c #EDFEFE",
"q. c #F3F4F5",
"w. c #F7F7F8",
"e. c #FCFDFF",
/* pixels */
"J J J J J J J J J J J J J J J J J J J J J J F             J J J J J J J J J J J J J J J J J J J J J ",
"J J J J J J J J J J J J J J J J J J J     k k A K K K K l k 1   *   . q a 2   = J J J J J J J J J J ",
"J J J J J J J J J J J J J J J J J   k K E E E E E E E K K K K B f & W ` ` _ W Y L , J J J J J J J J ",
"J J J J J J J J J J J J J   S U R P E E E E E E E E E E E E K K K k   ) ) ' ' {  .) V o J J J J J J ",
"J J J J J J J J J J J J   L E E E E E E E E E E E E E E E E E E K K K < T ^ ^ ^ ) ' Q A l J J J J J ",
"J J J J J J J J J J     L ^ E E E E E E E E E E E E E E E E E E E T K K ^ E E E E E / E P b J J J J ",
"J J J J J J J J J     , L _ E E E E E E E E E E E E E E E E E E E E E K l E E E E E E ^ E Y x J J J ",
"J J J J J J J J 9   S   Q ) E E E E E E E E E E E E E E E E E E E E E T K E E E E E E E E E U j J J ",
"J J J J J J J J : S A   W ) ^ E ^ ^ ^ 2 p E E E E E E E & E E E E E E E K K E E E E E E     E A   J ",
"J J J J J J J M L E U   o.) ^ E ~ X e.e.V E E E E E E E E E   E E E E E E E E ^ E p ; E ^ % J j V J ",
"J J J J J J S P E E E Z O.O.O.O.e.    e.T E E E E E E E E E $ E j E ^ E E E E E E E E E   J J J J J ",
"J J J J J S R E E E E Y z       e.e.e.7.E E E [ +.O.+.] E E   E   E E E E E E E E E E E E   J J J J ",
"J J J J L E E E E E E E R E E E   %   ^ o.O.O.O.O.O.O.O.v O.m E p E E E E E E E E E E E ) E   J J J ",
"J J J P E E E E E E E E E E E E ^ E } O.O.O.O.      ..O.O.O.O.O.^ ^ E E E E E E E E E E E E Y   J J ",
"J J L E E E E E E E E E E E E E E O.O.O.O.. e.e.e.e.e.w.. O.O.O.O.) E E E E E E E E E E E / E A   J ",
"J M E E E E E E E E E E E E E O.O.O.O.O.e e.e.e.e.e.e.e.e.:.O.O.O.O.E E E E E E E E E E ^ ^ W U   J ",
"  Y E E E E E E E E E E Q ) +.+.O.+.+.O.e.e.e.e.e.e.e.e.e.r e.  O.O.O.T ^ ^ E E E E E E E E ) E M G ",
"J [ +.^ E E E E E E E +.+.+.+.%.%.@.@.  e.e.e.e.e.e.e.o e.e.e.#.  O.O.^ ^ T E E E E E E E ^ E ^ A   ",
"J J @.@.@.+.@.+.@.y / %.%.%.*.*.-.*.%.e.e.e.e.. e.e.e.1.  ..o.O.O./ O.O.~ E E E E E E E E E ^ ^ A   ",
"J J J I *.&.&.*.*.*.-.*.>.,.<.<.<.,.# X.  e.e.=.e.e.0 O.O.+.O.O.O.O.O.O.E E E E E E E E E E E ^ P X ",
"J J J J   4.2.4.4.5.5.4.5.5.8.6.4.  e.  e.e.& e.c O.O.O.O.O.O.O.O.O.+.O.E E E E E E E E E E ^ ) P + ",
"J J J J J H y 0.0.0.0.0.0.0.9.5.C e.e.;.e.e.e.q.O.O.+.O.+.O.O.O.O.+.O.O.E E E E E E E E E E E / U   ",
"J J J J J J J H   0.0.0.0.; # e.e.e.e.e.e.e.e.O.O.O.+.@.@.+.+.t O.o.O.O.E E E E E E E E E E ^ ^ D 6 ",
"J J J J J J J J J J G   o w.e.3.e.e.& e.e.7.O.O.O.+.@.%.%.+.+.+.O.O.O.+.E E E E E E E E E E E ^ S J ",
"J J J J J J J J J J J J J J   e.e.e.e.q.  +.O.+.O.@.%.c ,.&.@.+.O.O.O.O.E E E E E E E E E E E ^ 8 J ",
"J J J J J J J J J J J J J J J J J J ~ ..o.o.o.o...(   E p &.&.@.O.O.O.O.E E E E s E E E E E E   J J ",
"J J J J J J J J J J J J J J J J J J J J J G 4 w E E E E E ,.>.@.O.O.O.O.E E E E M E E E E E @ E E   ",
"J J J J J J J J J J J J J J J J J J J J J J J J J     n E 1.<.%.+.O.O.O.E E E E l   E E E E E E E J ",
"J J J J J J J J J J J J J J J J J J J J J J J J J Y E E E > 2.%.+.O.O.O.^ ^ T ^ g = P E E E E E   J ",
"J J J J J J J J J J J J J J J J J J J J J J J J J E E E E   4.%.+.O.O.) T T ^ K g J 5 E E E E E J J ",
"J J J J J J J J J J J J J J J J J J J J J J J J J J J E E   <.%.+.O.O.E ^ ~ E V d J J   E E E   J J ",
"J J J J J J J J J J J J J J J J J J J J J J J J J J J J   $ <.@.+.O.+.E E E E M   J J J   t   J J J ",
"J J J J J J J J J J J J J J J J J J J J J J J J J J J J J 1.>.@.+.O.E E E E P g J J J J J J J J J J ",
"J J J J J J J J J J J J J J J J J J J J J J J J J J J J J %.&.+.O.O.E E E E V . J J J J J J J J J J ",
"J J J J J J J J J J J J J J J J J J J J J J J J J J J J J %.@.O.O.E E E E E v J J J J J J J J J J J ",
"J J J J J J J J J J J J J J J J J     s P b $   7 J J J - @.@.O.O.E E E E n   J J J J J J J J J J J ",
"J J J J J J J J J J J J J J O h P E E E E E E E E E D J O.+.O.O.E E E E N   J J J J J J J J J J J J ",
"J J J J J J J J J J J J H u S S Y E E E E E E E E E ^ ) O.O.O.E E E E E   J J J J J J J J J J J J J ",
"J J J J J J J J J J J   A S Y T E E E E E E E E E E E O.O.O.^ E E E E   J J J J J J J J J J J J J J ",
"J J J J J J J J J J J J J J *     S E ^ E E E E E E O.O.) ^ E E E X J J J J J J J J J J J J J J J J ",
"J J J J J J J J J J J J J J J J J J J   ) ^ E E E O.) E E E E E G J J J J J J J J J J J J J J J J J ",
"J J J J J J J J J J J J J J J J J J J J J   ) ^ ^ E E E E E E E J J J J J J J J J J J J J J J J J J ",
"J J J J J J J J J J J J J J J J J J J J J J   ' ) E E E E E E E O J J J J J J J J J J J J J J J J J ",
"J J J J J J J J J J J J J J J J J J J J J J J !  .E E E E E E E 3 J J J J J J J J J J J J J J J J J ",
"J J J J J J J J J J J J J J J J J J J J J J J   $.) E E E E E R J J J J J J J J J J J J J J J J J J ",
"J J J J J J J J J J J J J J J J J J J J J J J J $.) E E E E E   J J J J J J J J J J J J J J J J J J ",
"J J J J J J J J J J J J J J J J J J J J J J J H $.) E E U L   J J J J J J J J J J J J J J J J J J J ",
"J J J J J J J J J J J J J J J J J J J J J J J   | R P L R   J J J J J J J J J J J J J J J J J J J J ",
"J J J J J J J J J J J J J J J J J J J J J J J h Q U i   J J J J J J J J J J J J J J J J J J J J J J ",
"J J J J J J J J J J J J J J J J J J J J J J 9   * J J J J J J J J J J J J J J J J J J J J J J J J J "
};
