/* XPM */
static char *result[] = {
/* columns rows colors chars-per-pixel */
"50 50 221 2 ",
"   c #132F0E",
".  c #193711",
"X  c #173911",
"o  c #1B3C12",
"O  c #29380F",
"+  c #213F13",
"@  c #1D4314",
"#  c #1E4D17",
"$  c #224415",
"%  c #234916",
"&  c #274816",
"*  c #2A461A",
"=  c #254D19",
"-  c #2B4C1A",
";  c #344E1A",
":  c #25531C",
">  c #2B531D",
",  c #2F591E",
"<  c #33551B",
"1  c #314E22",
"2  c #2E5721",
"3  c #245A21",
"4  c #2B5B22",
"5  c #325323",
"6  c #325C23",
"7  c #3B5E24",
"8  c #3B592A",
"9  c #3B5D2B",
"0  c #3E5730",
"q  c #2C6127",
"w  c #25652A",
"e  c #2B6429",
"r  c #256C2D",
"t  c #2A6C2D",
"y  c #336126",
"u  c #3B6226",
"i  c #346529",
"p  c #3B6229",
"a  c #326A2C",
"s  c #3C6B2C",
"d  c #29702F",
"f  c #37712E",
"g  c #3F6230",
"h  c #2C7231",
"j  c #337531",
"k  c #3B7631",
"l  c #347933",
"z  c #3C7C34",
"x  c #464E19",
"c  c #4D701D",
"v  c #425C2C",
"b  c #455D35",
"n  c #456625",
"m  c #43642C",
"M  c #49652C",
"N  c #436A2C",
"B  c #4A6A2C",
"V  c #556B29",
"C  c #47732F",
"Z  c #53742E",
"A  c #5D762F",
"S  c #446332",
"D  c #4A6435",
"F  c #446B33",
"G  c #4B6A34",
"H  c #4B653A",
"J  c #476D38",
"K  c #4D6B3B",
"L  c #516B35",
"P  c #52673D",
"I  c #536C3C",
"U  c #447431",
"Y  c #437C34",
"T  c #4C7D34",
"R  c #4B7138",
"E  c #547435",
"W  c #5D7E33",
"Q  c #577639",
"!  c #696F26",
"~  c #627D34",
"^  c #536D42",
"/  c #5B6D43",
"(  c #576D4A",
")  c #557246",
"_  c #5A7144",
"`  c #567A44",
"'  c #5C7A43",
"]  c #57754A",
"[  c #5A744B",
"{  c #5B7B4C",
"}  c #5D7452",
"|  c #5E7D51",
" . c #616C48",
".. c #667548",
"X. c #617B53",
"o. c #687957",
"O. c #83502A",
"+. c #906C3D",
"@. c #3F8137",
"#. c #47842F",
"$. c #438136",
"%. c #4B8236",
"&. c #458238",
"*. c #4A8539",
"=. c #4D893A",
"-. c #578537",
";. c #538B3A",
":. c #5A8D3C",
">. c #58963B",
",. c #5E943C",
"<. c #718F2C",
"1. c #668535",
"2. c #6E8333",
"3. c #778B37",
"4. c #7D8E35",
"5. c #63943B",
"6. c #6A9D3D",
"7. c #7D9237",
"8. c #789539",
"9. c #77A53C",
"0. c #5B834A",
"q. c #728B43",
"w. c #699743",
"e. c #759C4A",
"r. c #638253",
"t. c #698355",
"y. c #6B8B55",
"u. c #668158",
"i. c #6B855D",
"p. c #6C895D",
"a. c #748B5B",
"s. c #739D52",
"d. c #6DA440",
"f. c #78A449",
"g. c #5B8976",
"h. c #6E8562",
"j. c #738D63",
"k. c #778E6A",
"l. c #788D6C",
"z. c #769166",
"x. c #7A9568",
"c. c #7B946B",
"v. c #718F75",
"b. c #7E9974",
"n. c #839336",
"m. c #8A9730",
"M. c #859B37",
"N. c #829639",
"B. c #8A9A3A",
"V. c #B49C3D",
"C. c #86A73A",
"Z. c #95A537",
"A. c #98B63C",
"S. c #AFB33D",
"D. c #A8BC3B",
"F. c #A4C133",
"G. c #B4CA3A",
"H. c #C3D530",
"J. c #8B9B46",
"K. c #8D904B",
"L. c #8A995C",
"P. c #88A647",
"I. c #93A54B",
"U. c #8CB84E",
"Y. c #85AA5B",
"T. c #96B85A",
"R. c #A6B647",
"E. c #A8AF56",
"W. c #838969",
"Q. c #82966A",
"!. c #839873",
"~. c #869B79",
"^. c #88AB66",
"/. c #87AE6C",
"(. c #94A96B",
"). c #97B46A",
"_. c #93A778",
"`. c #95B574",
"'. c #98B67B",
"]. c #A6AF6B",
"[. c #A3C855",
"{. c #B5C35C",
"}. c #9CC37A",
"|. c #C2CD49",
" X c #CBD44E",
".X c #C6D95D",
"XX c #D6E579",
"oX c #004F99",
"OX c #05529A",
"+X c #0D589C",
"@X c #135C9E",
"#X c #1D6197",
"$X c #3B6F8E",
"%X c #27689A",
"&X c #306D9F",
"*X c #3C7598",
"=X c #155DA1",
"-X c #1C62A2",
";X c #2568A1",
":X c #3B77A8",
">X c #467FA5",
",X c #5A878D",
"<X c #5B8A9C",
"1X c #69928E",
"2X c #648C97",
"3X c #78979F",
"4X c #4881A5",
"5X c #6891A4",
"6X c #929E82",
"7X c #8AA788",
"8X c #9AB886",
"9X c #8EAF97",
"0X c #A5B886",
"qX c #A9AA92",
"wX c #8DABAA",
"eX c #91ADAB",
"rX c #CDAA8F",
"tX c #A5C28C",
"yX c #ACC393",
"uX c #B2CA9B",
"iX c #C7D487",
/* pixels */
"oXoXoXoXoXoXoXk.g _ j.#XOXoXoXoXoXoXoXoXoXoXoXoXoXoXoXoXoXoXoXoXoXoXoXoXoXoXoXoXoXoXoXoXoXoXoXoXoXoX",
"oXoXoXoXoXoXoXj.o.^ j.^ j.c.-XoXoXoXoXoXoXoXoXoXoXoXoXoXoXoXoXoXoXoXoXoXoXoXoXoXoXoXoXoXoXoXoXoXoXoX",
"oXoXoXoXoXoXoXB ) 9 j.p.z...r.Q.*XoXoXoXoXoXoXoXoXoXoXoXoXoXoXoXoXoXoXoXoXoXoXoXoXoXoXoXoXoXoXoXoXoX",
"oXoXoXoXoXoXoXI K ^ ^ c.X._ ' r.t.Q.oXoXoXoXoXoXoXoXoXoXoXoXoXoXoXoXoXoXoXoXoXoXoXoXoXoXoXoXoXoXoXoX",
"oXoXoXoXoXoXoXt.K ^ S ] ) } p.r.r.] { +XOXOXoXoXoXoXoXoXoXoXoXoXoXoXoXoXoXoXoXoXoXoXoXoXoXoXoXoXoXoX",
"oXoXoXoXoXoXoXt._ ( D 9 { r.z.p.x.| j.p.-XoXoXoXoXoXoXoXoXoXoXoXoXoXoXoXoXoXoXoXoXoXoXoXoXoXoXoXoXoX",
"oXoXoXoXoXoXoXa.X.H p i Q p.) c.x.a.z.c.] :XoXoXoXoXoXoXoXoXoXoXoXoXoXoXoXoXoXoXoXoXoXoXoXoXoXoXoXoX",
"oXoXoXoXoXoXoXa.X.X.[ s y 0.{ b.{ b.~.j.x.X.oXoXoXoXoXoXoXoXoXoXoXoXoXoXoXoXoXoXoXoXoXoXoXoXoXoXoXoX",
"oXoXoXoXoXoXoXOXk.o.] ] F s ` ~.| j.c.x.c.k.j.oXoXoXk.6X} K v.oXoXoXoXoXoXoXoXoXoXoXoXoXoXoXoXoXoXoX",
"oXoXoXoXoXoXoXoXh.h.i.{ J i i ] x.x.j.j.!.j.l.) oXk.} } } ) g g <XOXoXoXoXoXoXoXoXoXoXoXoXoXoXoXoXoX",
"oXoXoXoXoXoXoXoX3Xi.u.r.{ ) N e | ~.c.h.l.!.h.} =X[ ( } } ^ 9 g K L oXoXoXoXoXoXoXoXoXoXoXoXoXoXoXoX",
"oXoXoXoXoXoXoXoXOXi.i.x.y.` E s %.{ j.l.o.c.o.] ^ ] K K ( p g p ) I 5XoXoXoXoXoXoXoXoXoXoXoXoXoXoXoX",
"oXoXoXoXoXoXoXoXOXk.z.` r.R ^ s F Y.x.~.l.k.u.X.K i._ 9 H Q g p m b J OXoXoXoXoXoXoXoXoXoXoXoXoXoX/.",
"oXoXoXoXoXoXoXoXoXoXp.r.c.p.u.K J F e.~.Z.h.!._ ) F ^ ^ g H y ^ G G S Q.oXoXoXoXoXoXoXoXoXoXoX>.^.w.",
"oXoXoXoXoXoXoXoXoXoXoX{ { z.j.u.| I S F R.N.Z.) ) F P S b S ) 6 u m I G oXoXoXoXoXoXoXoX-X^.>.%.5.6.",
"oXoXoXoXoXoXoXoXoXoXoX%Xr.j.j.) K K i u S.n.n.4.J.K ) D S S S u y m ) Q oXoXoXoXoXoXoXuXd.;.5.w.6.9.",
"oXoXoXoXoXoXoXoXoXoXoXoX5Xc.!.Q.h._ ) g ].n.7.7.n.E...K H S D u u u D D oXoXoXoXoXOXuX^.=.;.Y '.*.f.",
"oXoXoXoXoXoXoXoXoXoXoXoXoX@Xc.X.^ | ) ( I Z.n.n.3.B.I.G b b ^ ) u N S G oXoXoXoX@XuX6.,.@.z 0X5.*.Y ",
"oXoXoXoXoXoXoXoXoXoXoXoXoXoXoXa.^ H ^ H S tX7.8.~ 4.B.N ^ P S m p 7 m L oXoXoX@XyX'.@.z l w.tX>.5.P.",
"oXoXoXoXoXoXoXoXoXoXoXoXoXoXoXoXOX) K ^ K E.M.2.~ 2.J.4.oXI S D 9 7 Q B oXoXoXtX/.=.l %.w '.e.$.5.,X",
"oXoXoXoXoXoXoXoXoXoXoXoXoXoXoXoXoXoX` Q K p Z.J.~ -.W 2.~.oXG I m M p S oXoX`.`.k l r w yX0X&.l %.oX",
"oXoXoXoXoXoXoXoXoXoXoXoXoXoXoXoXoXoXoXX.K _ K 7.).1.s E J.oXI / p m u A oXs.`.>.l d t w.8X>.@.%.;.OX",
"oXoXoXoXoXoXoXoXoXoXoXoXoXoXoXoXoXoXoXoXoXu.K I B.yXz C ~ oX$XI m 6 m +XoX'.^.l z t 3 8XyX*.*.=.7.oX",
"oXoXoXoXoXoXoXoXoXoXoXoXoXoXoXoXoXoXoXoXoXoXOXQ [ Q ].2 s oXoXI 4 2 s OXuXf.5.h h w ^.s.-.k $.*.oXoX",
"oXoXoXoXoXoXoXoXoXoXoXoXoXoXoXoXoXoXoXoXoXoXoXoX$XM m -.4.oXoXM 4 y 2X8X`.@.r h e -.yX8X5.*.$.Y oXoX",
"oXoXoXoXoXoXoXoXoXoXoXoXoXoXoXOXoXoXoXoXoXoXoXoXoXoXN 1.m oXoXu : y oX;.,.l w d # ^.^.,.=.$.$.<XoXoX",
"oXoXoXoXoXoXoXoXoXoXoXoXoXoXoXiXiXE.R.Z.oXoXoXoXoXoXoXu ].oXoXm e oX/.j h d 3 e :.e.Y j j z z oXoXoX",
"oXoXoXoXoXoXoXoXoXoXoXoXoX9XR.R.R.I.C.Z.T.M.oXOXoXoXS.OXV. XD.Z oXoXj d t w w ;.yX_.w.z &.z #XoXoXoX",
"oXoXoXoXoXoXoXoXoXoXoXoXoXm.3.n.N.M.8.C.-.}.<.OXoXoXoXV.:XK.oX(.oX#.h w e w @ w.^.Y.Y.@.l Y oXoXoXoX",
"oXoXoXoXoXoXoXoXoXoXoXoXoXoX+XZ.M.4.~ ~ C U C Z 2.oXOXM.d.L.oXwXT h r w 3 : h s.Y.*.l @.Y oXoXoXoXoX",
"oXoXoXoXoXoXoXoXoXoXoXoXoXoXoXoX1XZ.B.B.7.2.Z u n N OXoXC.x O _.t.t a 4 : k T h l h @.%.oXoXoXoXoXoX",
"oXoXoXoXoXoXoXoXoXoXoXoXoXoXoXoXoXoXoX+XS.Z.Z.B.#.Z c >XoXoXK.oX%.t e 4 U *./.Y.@.z Y oXoXoXoXoXoXoX",
"oXoXoXoXoXoXoXoXoXoXoXoXoXoXoXoXoXoXoXoXoXoXoXoXoXoXoXoX2X+.oXoXf t 4 @ t %.z j %.T oXoXoXoXoXoXoXoX",
"oXoXoXoXoXoXoXoXoXoXoXoXoXoXoXoXoXoXoXoXoXoXoXoXoXoXoXoXOXO.oXoXt e : Y l %.l l C oXoXoXoXoXoXoXoXoX",
"oXoXoXoXoXoXoXoXoXoXoXoXoXoXoXoXoXoXoXoXoXoXoXoXoXoXoXoXrXoXoXoXa y d ;.l l k W...qXoXoXoXoXoXoXoXoX",
"oXoXoXoXoXoXoXoXoXoXoXoXoXoXoXoXoXoXoXoXoXoXoXoXoXoXoXoXO.OXg.-.C f j j f 1.oX .W.W.oXoXoXoXoXoXoXoX",
"oXoXoXoXoXoXoXoXoXoXoXoXoXoXoXoXoXoXoXoXoXoXoXoXoX).9.9X+X0.: C T t T I.OXoXoX<X .6XoXoXoXoXoXoXoXoX",
"oXoXoXoXoXoXoXoXoXoXoXoXoXoXoXoXoXoXoXoXoXoXoXoXoXT.C.V ! 5.e -.q.k B I oXoXoXOX*XqX&XoXoXoXoXoXoXoX",
"oXoXoXoXoXoXoXoXoXoXOX7X< > D [ m = @ @ + @ o @ @ $ y V OX-.]., # : 2 L _ o.OXOXOX;XoXoXoXoXoXoXoXoX",
"oXoXoXoXoXoXoX=X!.o.9 & % & = & @ o X @ . . o X $ y : oXA %Xi P.i u @ > / ..I  .&XOXoXoXoXoXoXoXoXoX",
"oXoXoXoXoX3X9 v 6 7 = = = = $ o o . . . .   4 u , : = 0.f OX[.{.6 p Z E & b I / ; oXoXoXoXoXoXoXoXoX",
"oXoXoXoX8 > % & & $ $ o + $ @ + & . o > I u u $ : : # A q >X9.9.L.n 6 L Q Z & ; o.oXoXoXoXoXoXoXoXoX",
"oXoXo.5 1 * * & $ + $ & $ $ . > G S u B i 6 > % $X# = s Y G.:.U.G.# = n L  .D v W.oXoXoXoXoXoXoXoXoX",
"oX' 0 8 1 $ 1 $ - & * M / 6 P , 7 : % > > u = ;X> @ 4 q OXR.9.[..XoX@X> L D v ..W.oXoXoXoXoXoXoXoXoX",
"eXo.( P b 0 * K D S D > - @ = $ > % @ > u < u : X i w ;. X9.D.F.7XoXoXoX< I v / -XoXoXoXoXoXoXoXoXoX",
"oX^ 1 1 * $ + $ % o % % o $ @ @ o o 6 : oXB q X i i a oX|.C.A.G.OXoXoXoXoXqXL P +XoXoXoXoXoXoXoXoXoX",
"oXOXS 5 % % $ o $ . @ $ o @ @ o @ & } OXZ , , 4 i -.g.oXA.F.|..XoXoXoXoXoXoXoXoXoXoXoXoXoXoXoXoXoXoX",
"oXoXoX9 * * $ $ o o $ @ $ & + ..oXoXoXQ 6 : 4 a T y.oX9XG.G.G.oXoXoXoXoXoXoXoXoXoXoXoXoXoXoXoXoXoXoX",
"oXoXoXoXoX .v ; * * ; $ > ; oXoXoXoX' M : y q ;.oXoXoXF..XH.4XoXoXoXoXoXoXoXoXoXoXoXoXoXoXoXoXoXoXoX",
"oXoXoXoXoXoXoXoXoXoXOXoXoXOXoXoXoXoXJ.V n 2X+XoXoXoXoXXX%XOXoXoXoXoXoXoXoXoXoXoXoXoXoXoXoXoXoXoXoXoX"
};
